IKResults
version=1
nRows=7
nColumns=40
inDegrees=yes

Units are S.I. units (second, meters, Newtons, ...)
Angles are in degrees.

endheader
time	pelvis_tilt	pelvis_list	pelvis_rotation	pelvis_tx	pelvis_ty	pelvis_tz	hip_flexion_r	hip_adduction_r	hip_rotation_r	knee_angle_r	knee_angle_r_beta	ankle_angle_r	subtalar_angle_r	mtp_angle_r	hip_flexion_l	hip_adduction_l	hip_rotation_l	knee_angle_l	knee_angle_l_beta	ankle_angle_l	subtalar_angle_l	mtp_angle_l	lumbar_extension	lumbar_bending	lumbar_rotation	arm_flex_r	arm_add_r	arm_rot_r	elbow_flex_r	pro_sup_r	wrist_flex_r	wrist_dev_r	arm_flex_l	arm_add_l	arm_rot_l	elbow_flex_l	pro_sup_l	wrist_flex_l	wrist_dev_l
      0.88000000	     18.02144074	      2.40258086	     -5.82721252	     -0.69134046	      0.94989180	     -1.44846072	    -24.98805106	     -6.53821631	     -4.82646350	    -34.60395512	     -0.60395295	     -1.61876515	     -7.85614937	     -1.53107951	     -8.98526938	     -3.06333826	     27.08239469	    -11.09378642	     -0.19362310	      1.16797754	     -7.03594107	     -8.26481770	    -21.67884046	     -5.47431920	      4.84123815	     -3.38932796	    -12.05617256	     -1.49570200	     28.43792755	     89.95437384	      0.00000000	      0.00000000	     -9.61141629	      8.55619779	      1.88354123	     18.46363530	     89.95437384	      0.00000000	      0.00000000
      0.89000000	     18.23560172	      2.11554800	     -5.67226402	     -0.68465889	      0.95054912	     -1.45027617	    -24.52579799	     -6.47469903	     -5.17155434	    -36.29753263	     -0.63351145	     -2.57043014	     -7.92784622	     -1.36762428	     -9.61359629	     -2.89211692	     27.07206728	    -11.22678766	     -0.19594441	      1.31201400	     -6.97815639	     -8.18589236	    -21.93658718	     -5.12499719	      4.66361629	     -3.47788197	    -12.07569569	     -1.50674344	     28.29612191	     89.95437384	      0.00000000	      0.00000000	     -9.21728874	      8.66571031	      1.72738626	     18.87474799	     89.95437384	      0.00000000	      0.00000000
      0.90000000	     18.25263162	      2.09712457	     -5.79531143	     -0.67789825	      0.95073509	     -1.45189455	    -23.60378815	     -6.90204126	     -5.60606441	    -38.25354742	     -0.66765035	     -4.48513402	     -8.44867318	     -0.92975841	    -10.08261384	     -3.11930649	     27.00968396	    -11.12294620	     -0.19413203	      1.45106021	     -7.30402783	     -8.18723263	    -21.89762474	     -5.12246935	      4.78751665	     -3.67678979	    -12.12995831	     -1.31181814	     28.13062430	     89.95437384	      0.00000000	      0.00000000	     -8.80664239	      8.79806341	      1.43130981	     19.35999793	     89.95437384	      0.00000000	      0.00000000
      0.91000000	     18.41678512	      2.01303278	     -5.86704484	     -0.67150668	      0.95099375	     -1.45341571	    -22.85241986	     -7.13475143	     -5.71084583	    -40.22685645	     -0.70209109	     -5.30730786	     -9.10877798	     -0.56540400	    -10.64338323	     -3.22908054	     27.04320078	    -11.14993255	     -0.19460303	      1.56799677	     -7.48551154	     -8.21028018	    -22.08565472	     -5.05871791	      4.75368274	     -3.74372676	    -12.16428669	     -1.21283506	     28.03798014	     89.95437384	      0.00000000	      0.00000000	     -8.37690919	      8.96717399	      1.12977899	     19.82162778	     89.95437384	      0.00000000	      0.00000000
      0.92000000	     18.62923342	      1.85937772	     -5.89630668	     -0.66523811	      0.95123460	     -1.45494580	    -22.15534470	     -7.25722138	     -5.74496399	    -42.17955893	     -0.73617218	     -5.83536487	     -9.52047989	     -0.29160054	    -11.21107280	     -3.23535889	     26.99844673	    -11.29353326	     -0.19710934	      1.78096889	     -7.58131547	     -8.22631965	    -22.34286932	     -4.91160621	      4.71087445	     -3.79604842	    -12.21116198	     -1.07891987	     27.97080670	     89.95437384	      0.00000000	      0.00000000	     -7.88794395	      9.11014440	      0.95185476	     20.24742480	     89.95437384	      0.00000000	      0.00000000
      0.93000000	     19.01253680	      1.60883721	     -5.72476754	     -0.65916514	      0.95178647	     -1.45628455	    -21.73872888	     -7.12867868	     -5.81759174	    -43.94291749	     -0.76694859	     -6.01751957	     -9.60405091	     -0.26160184	    -11.94504936	     -3.04878324	     26.92170869	    -11.51085669	     -0.20090235	      2.00268144	     -7.52435418	     -8.16048973	    -22.83303674	     -4.66155286	      4.39515078	     -3.73508708	    -12.13664172	     -1.08130376	     27.96379357	     89.95437384	      0.00000000	      0.00000000	     -7.36457728	      9.31711081	      0.93426933	     20.58121034	     89.95437384	      0.00000000	      0.00000000
      0.94000000	     19.07191969	      1.69808285	     -6.05982899	     -0.65305750	      0.95158452	     -1.45736174	    -20.58604714	     -7.59497305	     -5.66607746	    -46.25442172	     -0.80729195	     -6.37574623	    -10.59528000	      0.10734236	    -12.41964313	     -3.38016643	     26.91952294	    -11.50828266	     -0.20085742	      2.58785198	     -7.81258063	     -8.21530362	    -22.87085600	     -4.87508866	      4.60439345	     -3.80058971	    -12.16102499	     -0.90135883	     27.85775708	     89.95437384	      0.00000000	      0.00000000	     -6.86636803	      9.48587429	      0.88459600	     21.06444235	     89.95437384	      0.00000000	      0.00000000
